<?xml version="1.0"?>
<svg xmlns="http://www.w3.org/2000/svg" id="Layer_1" data-name="Layer 1" viewBox="0 0 64 64"><title>Dusk Part 1</title><path d="M52.59,33a20,20,0,0,0-38.76-9.71A16,16,0,0,0,17,55H52a11,11,0,0,0,.59-22Z" style="fill:#c2cde7;"/><path d="M17.79,19.59a2.51,2.51,0,0,0,3.72-.21,15,15,0,0,1,23,0,2.51,2.51,0,0,0,3.72.21h0a2.52,2.52,0,0,0,.12-3.41,20,20,0,0,0-30.68,0,2.52,2.52,0,0,0,.12,3.41Z" style="fill:#d6dff2;"/><polygon points="6 50 61 50 55 55 13 55 6 50" style="fill:#acb7d0;"/><path d="M13,48a1,1,0,0,0-1,1v2a1,1,0,0,0,2,0V49A1,1,0,0,0,13,48Z" style="fill:#8d6c9f;"/><path d="M18,48a1,1,0,0,0-1,1v2a1,1,0,0,0,2,0V49A1,1,0,0,0,18,48Z" style="fill:#8d6c9f;"/><path d="M23,48a1,1,0,0,0-1,1v2a1,1,0,0,0,2,0V49A1,1,0,0,0,23,48Z" style="fill:#8d6c9f;"/><path d="M28,48a1,1,0,0,0-1,1v2a1,1,0,0,0,2,0V49A1,1,0,0,0,28,48Z" style="fill:#8d6c9f;"/><path d="M38,48a1,1,0,0,0-1,1v2a1,1,0,0,0,2,0V49A1,1,0,0,0,38,48Z" style="fill:#8d6c9f;"/><path d="M33,48a1,1,0,0,0-1,1v2a1,1,0,0,0,2,0V49A1,1,0,0,0,33,48Z" style="fill:#8d6c9f;"/><path d="M43,48a1,1,0,0,0-1,1v2a1,1,0,0,0,2,0V49A1,1,0,0,0,43,48Z" style="fill:#8d6c9f;"/><path d="M48,48a1,1,0,0,0-1,1v2a1,1,0,0,0,2,0V49A1,1,0,0,0,48,48Z" style="fill:#8d6c9f;"/><path d="M53,48a1,1,0,0,0-1,1v2a1,1,0,0,0,2,0V49A1,1,0,0,0,53,48Z" style="fill:#8d6c9f;"/><path d="M56.32,32.84a1,1,0,0,0-.15-.09,11.86,11.86,0,0,0-2.11-.54l-.3-.06a21,21,0,0,0-18.05-24,21,21,0,0,0-22,12.61l0,0c-.19.45-.34.91-.5,1.37,0,.09-.07.18-.1.27A17,17,0,0,0,17.45,56h34.2A12.29,12.29,0,0,0,64,44.45,12.06,12.06,0,0,0,56.32,32.84ZM59,51V49a1,1,0,0,0-2,0v2a1,1,0,0,0,.84,1,10.49,10.49,0,0,1-6.19,2H17.45a15.75,15.75,0,0,1-8.59-2.53A1,1,0,0,0,9,51V49a1,1,0,0,0-2,0v1A14.71,14.71,0,0,1,2,39.84,15.1,15.1,0,0,1,12.44,24.72,21.07,21.07,0,0,0,12,29a1,1,0,0,0,2,0,19,19,0,0,1,.78-5.38v0c.11-.38.25-.75.38-1.11.06-.17.12-.35.19-.52A19,19,0,0,1,33,10a19.59,19.59,0,0,1,2.44.15A19.12,19.12,0,0,1,51.83,26.39,19.38,19.38,0,0,1,51.74,32a12,12,0,0,0-1.83.16,1,1,0,1,0,.35,2A10,10,0,0,1,52.58,34c.27,0,.54,0,.81.08l.3,0A10,10,0,0,1,62,44.38,9.77,9.77,0,0,1,59,51Z" style="fill:#8d6c9f;"/><path d="M43.21,18a1,1,0,0,0-.15-1.41,16,16,0,0,0-2.53-1.68,1,1,0,0,0-.94,1.77,13.83,13.83,0,0,1,2.21,1.47A1,1,0,0,0,43.21,18Z" style="fill:#8d6c9f;"/><path d="M36.38,13.36a16.2,16.2,0,0,0-11,1.57,1,1,0,0,0,1,1.76A14.21,14.21,0,0,1,36,15.31a1,1,0,1,0,.42-2Z" style="fill:#8d6c9f;"/></svg>
