<?xml version="1.0" encoding="iso-8859-1"?>
<!-- Generator: Adobe Illustrator 19.1.1, SVG Export Plug-In . SVG Version: 6.00 Build 0)  -->
<svg version="1.1"  xmlns="http://www.w3.org/2000/svg" xmlns:xlink="http://www.w3.org/1999/xlink" x="0px" y="0px"
	 viewBox="0 0 40 40" style="enable-background:new 0 0 40 40;" xml:space="preserve">
<g>
	<path style="fill:#FFEEA3;" d="M24.5,29.5c-5.728,0-10.85-3.534-12.96-8.766c1.77,1.147,3.836,1.766,5.96,1.766
		c6.065,0,11-4.935,11-11c0-4.197-2.36-7.979-6.075-9.836C23.124,1.555,23.817,1.5,24.5,1.5c7.72,0,14,6.28,14,14
		S32.22,29.5,24.5,29.5z"/>
	<path style="fill:#F5C276;" d="M24.5,2C31.944,2,38,8.056,38,15.5S31.944,29,24.5,29c-5.006,0-9.531-2.799-11.85-7.08
		C14.158,22.626,15.812,23,17.5,23C23.841,23,29,17.841,29,11.5c0-3.855-1.905-7.375-5.001-9.49C24.167,2.003,24.334,2,24.5,2
		 M24.5,1c-1.291,0-2.536,0.185-3.727,0.501c0.311,0.1,0.56,0.202,0.765,0.306C25.332,3.389,28,7.132,28,11.5
		C28,17.299,23.299,22,17.5,22c-2.671,0-5.102-1.006-6.955-2.649C12.235,25.485,17.829,30,24.5,30C32.508,30,39,23.508,39,15.5
		C39,7.492,32.508,1,24.5,1L24.5,1z"/>
</g>
<g>
	<polygon style="fill:#FFEEA3;" points="5.52,9.479 2.581,8.5 5.52,7.52 6.5,4.581 7.479,7.52 10.419,8.5 7.479,9.479 6.5,12.419 	
		"/>
	<path style="fill:#F5C276;" d="M6.5,6.162l0.426,1.279l0.158,0.474l0.474,0.158L8.838,8.5L7.559,8.926L7.084,9.084L6.926,9.559
		L6.5,10.838L6.074,9.559L5.916,9.084L5.441,8.926L4.162,8.5l1.279-0.426l0.474-0.158l0.158-0.474L6.5,6.162 M6.5,3L5.125,7.125
		L1,8.5l4.125,1.375L6.5,14l1.375-4.125L12,8.5L7.875,7.125L6.5,3L6.5,3z"/>
</g>
<g>
	<polygon style="fill:#FFEEA3;" points="17.082,9.914 16.018,9.559 17.082,9.205 17.437,8.14 17.791,9.205 18.856,9.559 
		17.791,9.914 17.437,10.978 	"/>
	<polygon style="fill:#F5C276;" points="17.437,6.559 16.687,8.809 14.437,9.559 16.687,10.309 17.437,12.559 18.187,10.309 
		20.437,9.559 18.187,8.809 17.437,6.559 	"/>
</g>
<g>
	<g>
		<path style="fill:#DCD5F2;" d="M36.5,34h-2.015C34.803,33.58,35,33.064,35,32.5c0-1.375-1.125-2.5-2.5-2.5h-6.015
			C26.803,29.58,27,29.064,27,28.5s-0.197-1.08-0.515-1.5H26.5c1.375,0,2.5-1.125,2.5-2.5S27.875,22,26.5,22h-9.015
			C17.803,21.58,18,21.064,18,20.5c0-1.375-1.125-2.5-2.5-2.5h-12C2.125,18,1,19.125,1,20.5S2.125,23,3.5,23h1.015
			C4.197,23.42,4,23.936,4,24.5c0,0.639,0.25,1.217,0.647,1.66C3.691,26.512,3,27.425,3,28.5c0,0.564,0.197,1.08,0.515,1.5H3.5
			C2.125,30,1,31.125,1,32.5S2.125,35,3.5,35h4.015C7.197,35.42,7,35.936,7,36.5C7,37.875,8.125,39,9.5,39h27
			c1.375,0,2.5-1.125,2.5-2.5S37.875,34,36.5,34z"/>
	</g>
</g>
<g>
	<path style="fill:#F7F5FF;" d="M10.545,19.351C12.235,25.485,17.829,30,24.5,30c0.709,0,1.404-0.055,2.085-0.155
		C26.84,29.455,27,28.998,27,28.5c0-0.564-0.197-1.08-0.515-1.5H26.5c1.375,0,2.5-1.125,2.5-2.5S27.875,22,26.5,22h-9.015
		c0,0,0,0,0-0.001C14.82,21.996,12.395,20.991,10.545,19.351z"/>
</g>
<path style="fill:#A693BC;" d="M36.5,34h-2.015C34.803,33.58,35,33.064,35,32.5c0-1.375-1.125-2.5-2.5-2.5h-6.015
	C26.803,29.58,27,29.064,27,28.5s-0.197-1.08-0.515-1.5H26.5c1.375,0,2.5-1.125,2.5-2.5S27.875,22,26.5,22h-9.015
	C17.803,21.58,18,21.064,18,20.5c0-1.375-1.125-2.5-2.5-2.5h-12C2.125,18,1,19.125,1,20.5S2.125,23,3.5,23h1.015
	C4.197,23.42,4,23.936,4,24.5c0,0.639,0.25,1.217,0.647,1.66C3.691,26.512,3,27.425,3,28.5c0,0.564,0.197,1.08,0.515,1.5H3.5
	C2.125,30,1,31.125,1,32.5S2.125,35,3.5,35h4.015C7.197,35.42,7,35.936,7,36.5C7,37.875,8.125,39,9.5,39h27
	c1.375,0,2.5-1.125,2.5-2.5S37.875,34,36.5,34z M36.5,38h-27C8.673,38,8,37.327,8,36.5S8.673,35,9.5,35H10v-1H9.5h-6
	C2.673,34,2,33.327,2,32.5S2.673,31,3.5,31h2H6v-1H5.5C4.673,30,4,29.327,4,28.5S4.673,27,5.5,27h1H7v-1H6.5
	C5.673,26,5,25.327,5,24.5S5.673,23,6.5,23H7v-1H6.5h-3C2.673,22,2,21.327,2,20.5S2.673,19,3.5,19h12c0.827,0,1.5,0.673,1.5,1.5
	S16.327,22,15.5,22H15v1h0.5h11c0.827,0,1.5,0.673,1.5,1.5S27.327,26,26.5,26h-2H24v1h0.5c0.827,0,1.5,0.673,1.5,1.5
	S25.327,30,24.5,30H24v1h0.5h8c0.827,0,1.5,0.673,1.5,1.5S33.327,34,32.5,34H32v1h0.5h4c0.827,0,1.5,0.673,1.5,1.5
	S37.327,38,36.5,38z"/>
</svg>
