<?xml version="1.0" encoding="iso-8859-1"?>
<!-- Generator: Adobe Illustrator 19.1.1, SVG Export Plug-In . SVG Version: 6.00 Build 0)  -->
<svg version="1.1"  xmlns="http://www.w3.org/2000/svg" xmlns:xlink="http://www.w3.org/1999/xlink" x="0px" y="0px"
	 viewBox="0 0 40 40" style="enable-background:new 0 0 40 40;" xml:space="preserve">
<g>
	<path style="fill:#FFEEA3;" d="M17.844,33.57l-0.248-0.043c-0.763-0.135-1.529-0.34-2.277-0.612l-0.236-0.085l-4.024,2.657
		l0.288-4.804l-0.192-0.162c-0.604-0.508-1.167-1.072-1.676-1.676l-0.162-0.192l-4.804,0.288l2.657-4.024L7.085,24.68
		c-0.271-0.748-0.477-1.513-0.612-2.276L6.43,22.156L2.118,20l4.312-2.156l0.043-0.248c0.135-0.763,0.34-1.529,0.612-2.277
		l0.085-0.236l-2.657-4.024l4.804,0.288l0.162-0.192c0.508-0.604,1.072-1.167,1.676-1.676l0.192-0.162l-0.288-4.804l4.024,2.657
		l0.236-0.085c0.748-0.271,1.514-0.477,2.277-0.612l0.248-0.043L20,2.118l2.156,4.312l0.248,0.043
		c0.763,0.135,1.529,0.34,2.277,0.612l0.236,0.085l4.024-2.657l-0.288,4.804l0.192,0.162c0.604,0.508,1.167,1.072,1.676,1.676
		l0.162,0.192l4.804-0.288l-2.657,4.024l0.085,0.236c0.271,0.748,0.477,1.514,0.612,2.277l0.043,0.248L37.882,20l-4.312,2.156
		l-0.043,0.248c-0.135,0.763-0.341,1.529-0.612,2.276l-0.085,0.236l2.657,4.024l-4.804-0.288l-0.162,0.192
		c-0.508,0.604-1.072,1.167-1.676,1.676l-0.192,0.162l0.288,4.804l-4.024-2.657l-0.236,0.085c-0.748,0.271-1.514,0.477-2.277,0.612
		l-0.248,0.043L20,37.882L17.844,33.57z"/>
	<path style="fill:#BA9B48;" d="M20,3.236l1.596,3.192l0.225,0.45l0.495,0.088c0.736,0.13,1.474,0.328,2.193,0.589l0.472,0.171
		l0.419-0.277l2.98-1.968l-0.213,3.555l-0.03,0.502l0.384,0.324c0.582,0.489,1.125,1.033,1.615,1.615l0.323,0.384l0.501-0.03
		l3.555-0.213l-1.968,2.98l-0.277,0.419l0.171,0.472c0.261,0.719,0.459,1.457,0.589,2.193l0.088,0.495l0.45,0.225L36.764,20
		l-3.192,1.596l-0.45,0.225l-0.088,0.495c-0.13,0.736-0.328,1.474-0.589,2.193l-0.171,0.472l0.277,0.419l1.968,2.98l-3.555-0.213
		l-0.502-0.03l-0.324,0.384c-0.489,0.581-1.033,1.125-1.615,1.615l-0.384,0.324l0.03,0.501l0.213,3.555l-2.98-1.968l-0.419-0.277
		l-0.472,0.171c-0.719,0.261-1.457,0.459-2.193,0.589l-0.495,0.088l-0.225,0.45L20,36.764l-1.596-3.192l-0.225-0.45l-0.495-0.088
		c-0.736-0.13-1.474-0.328-2.193-0.589l-0.472-0.171l-0.419,0.277l-2.98,1.968l0.213-3.555l0.03-0.501l-0.384-0.324
		c-0.582-0.49-1.126-1.034-1.615-1.615l-0.324-0.384l-0.502,0.03l-3.555,0.213l1.968-2.98l0.277-0.419L7.555,24.51
		c-0.261-0.719-0.459-1.457-0.589-2.193l-0.088-0.495l-0.45-0.225L3.236,20l3.192-1.596l0.45-0.225l0.088-0.495
		c0.13-0.736,0.328-1.474,0.589-2.193l0.171-0.472L7.45,14.598l-1.968-2.98l3.555,0.213l0.501,0.03l0.324-0.384
		c0.49-0.582,1.033-1.125,1.615-1.615l0.384-0.324l-0.03-0.502l-0.213-3.555l2.98,1.968l0.419,0.277l0.472-0.171
		c0.719-0.261,1.457-0.459,2.193-0.589l0.495-0.088l0.225-0.45L20,3.236 M20,1l-2.491,4.981c-0.814,0.144-1.601,0.358-2.36,0.634
		L10.5,3.545l0.333,5.552c-0.627,0.528-1.208,1.109-1.736,1.736L3.546,10.5l3.07,4.649c-0.275,0.76-0.49,1.547-0.634,2.36L1,20
		l4.981,2.491c0.144,0.814,0.358,1.601,0.634,2.36L3.546,29.5l5.552-0.333c0.528,0.627,1.109,1.208,1.736,1.736L10.5,36.454
		l4.649-3.07c0.76,0.276,1.547,0.49,2.36,0.634L20,39l2.491-4.981c0.814-0.144,1.601-0.358,2.36-0.634l4.649,3.07l-0.333-5.552
		c0.627-0.528,1.208-1.109,1.736-1.736l5.552,0.333l-3.07-4.649c0.275-0.76,0.49-1.547,0.634-2.36L39,20l-4.981-2.491
		c-0.144-0.814-0.358-1.601-0.634-2.36l3.07-4.649l-5.552,0.333c-0.528-0.627-1.109-1.208-1.736-1.736L29.5,3.545l-4.649,3.07
		c-0.76-0.276-1.547-0.49-2.36-0.634L20,1L20,1z"/>
</g>
<circle style="fill:#F5CE85;" cx="20" cy="20" r="10"/>
<g>
	<g>
		<path style="fill:#E1EBF2;" d="M36.5,34h-2.015C34.803,33.58,35,33.064,35,32.5c0-1.375-1.125-2.5-2.5-2.5h-6.015
			C26.803,29.58,27,29.064,27,28.5s-0.197-1.08-0.515-1.5H26.5c1.375,0,2.5-1.125,2.5-2.5S27.875,22,26.5,22h-9.015
			C17.803,21.58,18,21.064,18,20.5c0-1.375-1.125-2.5-2.5-2.5h-12C2.125,18,1,19.125,1,20.5S2.125,23,3.5,23h1.015
			C4.197,23.42,4,23.936,4,24.5c0,0.639,0.25,1.217,0.647,1.66C3.691,26.512,3,27.425,3,28.5c0,0.564,0.197,1.08,0.515,1.5H3.5
			C2.125,30,1,31.125,1,32.5S2.125,35,3.5,35h4.015C7.197,35.42,7,35.936,7,36.5C7,37.875,8.125,39,9.5,39h27
			c1.375,0,2.5-1.125,2.5-2.5S37.875,34,36.5,34z"/>
	</g>
</g>
<path style="fill:#F2FAFF;" d="M20,30c2.593,0,4.947-0.995,6.724-2.614c-0.07-0.135-0.148-0.266-0.239-0.386H26.5
	c0.264,0,0.514-0.053,0.753-0.129c0.699-0.738,1.283-1.581,1.733-2.505C28.914,23.054,27.829,22,26.5,22h-9.015
	C17.803,21.58,18,21.064,18,20.5c0-1.375-1.125-2.5-2.5-2.5h-5.299C10.07,18.646,10,19.315,10,20C10,25.523,14.477,30,20,30z"/>
<path style="fill:#B0C1D4;" d="M36.5,34h-2.015C34.803,33.58,35,33.064,35,32.5c0-1.375-1.125-2.5-2.5-2.5h-6.015
	C26.803,29.58,27,29.064,27,28.5s-0.197-1.08-0.515-1.5H26.5c1.375,0,2.5-1.125,2.5-2.5S27.875,22,26.5,22h-9.015
	C17.803,21.58,18,21.064,18,20.5c0-1.375-1.125-2.5-2.5-2.5h-12C2.125,18,1,19.125,1,20.5S2.125,23,3.5,23h1.015
	C4.197,23.42,4,23.936,4,24.5c0,0.639,0.25,1.217,0.647,1.66C3.691,26.512,3,27.425,3,28.5c0,0.564,0.197,1.08,0.515,1.5H3.5
	C2.125,30,1,31.125,1,32.5S2.125,35,3.5,35h4.015C7.197,35.42,7,35.936,7,36.5C7,37.875,8.125,39,9.5,39h27
	c1.375,0,2.5-1.125,2.5-2.5S37.875,34,36.5,34z M36.5,38h-27C8.673,38,8,37.327,8,36.5S8.673,35,9.5,35H10v-1H9.5h-6
	C2.673,34,2,33.327,2,32.5S2.673,31,3.5,31h2H6v-1H5.5C4.673,30,4,29.327,4,28.5S4.673,27,5.5,27h1H7v-1H6.5
	C5.673,26,5,25.327,5,24.5S5.673,23,6.5,23H7v-1H6.5h-3C2.673,22,2,21.327,2,20.5S2.673,19,3.5,19h12c0.827,0,1.5,0.673,1.5,1.5
	S16.327,22,15.5,22H15v1h0.5h11c0.827,0,1.5,0.673,1.5,1.5S27.327,26,26.5,26h-2H24v1h0.5c0.827,0,1.5,0.673,1.5,1.5
	S25.327,30,24.5,30H24v1h0.5h8c0.827,0,1.5,0.673,1.5,1.5S33.327,34,32.5,34H32v1h0.5h4c0.827,0,1.5,0.673,1.5,1.5
	S37.327,38,36.5,38z"/>
</svg>
