<?xml version="1.0" encoding="iso-8859-1"?>
<!-- Generator: Adobe Illustrator 19.1.1, SVG Export Plug-In . SVG Version: 6.00 Build 0)  -->
<svg version="1.1" id="Layer_1" xmlns="http://www.w3.org/2000/svg" xmlns:xlink="http://www.w3.org/1999/xlink" x="0px" y="0px"
	 viewBox="0 0 40 40" style="enable-background:new 0 0 40 40;" xml:space="preserve">
<g>
	<path style="fill:#FFEEA3;" d="M9.5,19.5c-4.962,0-9-4.038-9-9c0-4.879,3.903-8.865,8.751-8.997C6.969,2.811,5.5,5.251,5.5,8
		c0,4.136,3.364,7.5,7.5,7.5c1.841,0,3.575-0.666,4.92-1.842C16.63,17.096,13.303,19.5,9.5,19.5z"/>
	<path style="fill:#F5C276;" d="M7.422,2.257C5.911,3.72,5,5.765,5,8c0,4.411,3.589,8,8,8c1.28,0,2.511-0.301,3.611-0.859
		C15.082,17.477,12.442,19,9.5,19C4.813,19,1,15.187,1,10.5C1,6.53,3.737,3.186,7.422,2.257 M9.5,1C4.253,1,0,5.253,0,10.5
		S4.253,20,9.5,20c4.825,0,8.801-3.601,9.41-8.26C17.669,13.697,15.489,15,13,15c-3.866,0-7-3.134-7-7
		c0-3.315,2.306-6.085,5.4-6.809C10.786,1.066,10.151,1,9.5,1L9.5,1z"/>
</g>
<g>
	<polygon style="fill:#FFEEA3;" points="31.883,8.201 30.068,7.596 31.883,6.992 32.487,5.177 33.092,6.992 34.906,7.596 
		33.092,8.201 32.487,10.015 	"/>
	<path style="fill:#F5C276;" d="M32.488,6.758l0.051,0.154l0.158,0.474l0.474,0.158l0.154,0.051l-0.154,0.051l-0.474,0.158
		L32.539,8.28l-0.051,0.154L32.436,8.28l-0.158-0.474l-0.474-0.158L31.65,7.596l0.154-0.051l0.474-0.158l0.158-0.474L32.488,6.758
		 M32.488,3.596l-1,3l-3,1l3,1l1,3l1-3l3-1l-3-1L32.488,3.596L32.488,3.596z"/>
</g>
<g>
	<polygon style="fill:#FFEEA3;" points="24.258,4.73 23.569,4.5 24.258,4.271 24.488,3.581 24.717,4.271 25.407,4.5 24.717,4.73 
		24.488,5.419 	"/>
	<polygon style="fill:#F5C276;" points="24.488,2 23.863,3.875 21.988,4.5 23.863,5.125 24.488,7 25.113,5.125 26.988,4.5 
		25.113,3.875 24.488,2 	"/>
</g>
<g>
	<g>
		<path style="fill:#DCD5F2;" d="M7,35.5c-3.584,0-6.5-2.916-6.5-6.5c0-2.497,1.464-4.802,3.73-5.873l0.272-0.128l0.014-0.301
			C4.676,19.222,7.524,16.5,11,16.5c0.298,0,0.61,0.026,0.981,0.082l0.513,0.078l0.059-0.515C12.983,12.356,16.185,9.5,20,9.5
			c2.697,0,5.2,1.464,6.531,3.82l0.166,0.293l0.334-0.043c0.318-0.042,0.64-0.07,0.969-0.07c4.136,0,7.5,3.364,7.5,7.5v0.289
			l0.246,0.221C38.062,22.849,39.5,25.336,39.5,28c0,4.136-3.364,7.5-7.5,7.5H7z"/>
	</g>
	<g>
		<path style="fill:#A693BC;" d="M20,10c2.517,0,4.853,1.366,6.095,3.566l0.331,0.586l0.668-0.086C27.443,14.021,27.73,14,28,14
			c3.86,0,7,3.14,7.001,6.967l-0.004,0.069l0,0.032l-0.006,0.583l0.505,0.292C37.657,23.193,39,25.514,39,28c0,3.86-3.14,7-7,7H7
			c-3.308,0-6-2.692-6-6c0-2.304,1.352-4.432,3.444-5.421l0.544-0.257l0.028-0.601C5.163,19.513,7.792,17,11,17
			c0.273,0,0.561,0.024,0.906,0.077l1.026,0.156l0.117-1.031C13.451,12.666,16.439,10,20,10 M20,9c-4.109,0-7.491,3.1-7.944,7.088
			C11.71,16.036,11.36,16,11,16c-3.756,0-6.813,2.961-6.984,6.675C1.645,23.796,0,26.203,0,29c0,3.866,3.134,7,7,7h25
			c4.418,0,8-3.582,8-8c0-2.961-1.613-5.54-4.004-6.923C35.996,21.051,36,21.026,36,21c0-4.418-3.582-8-8-8
			c-0.351,0-0.695,0.03-1.034,0.074C25.593,10.644,22.99,9,20,9L20,9z"/>
	</g>
</g>
<path style="fill:#F7F5FF;" d="M20,10c-3.561,0-6.549,2.666-6.951,6.201l-0.117,1.031l-1.026-0.156C11.561,17.024,11.273,17,11,17
	c-3.208,0-5.837,2.513-5.985,5.721l-0.028,0.601l-0.544,0.257C2.352,24.568,1,26.696,1,29h1c0-1.92,1.127-3.693,2.871-4.517
	l0.544-0.257l0.544-0.257l0.028-0.601l0.028-0.601C6.137,20.094,8.327,18,11,18c0.222,0,0.462,0.021,0.756,0.065l1.026,0.156
	l1.026,0.156l0.117-1.031l0.117-1.031C14.387,13.284,16.948,11,20,11V10z"/>
</svg>
