<?xml version="1.0"?>
<svg xmlns="http://www.w3.org/2000/svg" id="Layer_1" data-name="Layer 1" viewBox="0 0 64 64"><title>Icons8 RSL Colored Part 11</title><path d="M52.59,25a20,20,0,0,0-38.76-9.71A16,16,0,0,0,17,47H52a11,11,0,0,0,.59-22Z" style="fill:#c2cde7;"/><path d="M17.79,11.59a2.51,2.51,0,0,0,3.72-.21,15,15,0,0,1,23,0,2.51,2.51,0,0,0,3.72.21h0a2.52,2.52,0,0,0,.12-3.41,20,20,0,0,0-30.68,0,2.52,2.52,0,0,0,.12,3.41Z" style="fill:#d6dff2;"/><polygon points="6 42 61 42 55 47 13 47 6 42" style="fill:#acb7d0;"/><path d="M56.33,24.84a1,1,0,0,0-.15-.09,11.87,11.87,0,0,0-2.11-.54l-.31-.06A21,21,0,0,0,35.72.17a21,21,0,0,0-22,12.61l0,0c-.19.45-.34.91-.5,1.37,0,.09-.07.18-.1.27A17.1,17.1,0,0,0,0,32,17.23,17.23,0,0,0,17.47,48h2.39l-3.73,6.5a1,1,0,1,0,1.73,1l4.3-7.5h7.19L20.61,61.46a1,1,0,0,0,1.68,1.09L31.74,48h5.12l-6,10.5a1,1,0,1,0,1.73,1L39.16,48h5.31l-3,5.22a1,1,0,0,0,1.73,1L46.78,48h4.88A12.29,12.29,0,0,0,64,36.45,12.06,12.06,0,0,0,56.33,24.84ZM59,43h0V41a1,1,0,0,0-2,0v2a1,1,0,0,0,.85,1,10.49,10.49,0,0,1-6.19,2H46.4a1,1,0,0,0-.34,0H17.47a15.75,15.75,0,0,1-8.6-2.53A1,1,0,0,0,9,43V41a1,1,0,0,0-2,0v1a14.71,14.71,0,0,1-5-10.2A15.1,15.1,0,0,1,12.45,16.72,21.07,21.07,0,0,0,12,21a1,1,0,0,0,2,0,19,19,0,0,1,.78-5.38v0c.11-.38.25-.75.38-1.11.06-.17.12-.35.19-.52A19,19,0,0,1,33,2a19.59,19.59,0,0,1,2.44.15A19.12,19.12,0,0,1,51.84,18.39,19.38,19.38,0,0,1,51.76,24a12,12,0,0,0-1.83.16,1,1,0,1,0,.35,2A10.07,10.07,0,0,1,52.6,26c.27,0,.54,0,.8.08l.3,0A10,10,0,0,1,62,36.38,9.77,9.77,0,0,1,59,43Z" style="fill:#8d6c9f;"/><path d="M43.22,10a1,1,0,0,0-.15-1.41,16,16,0,0,0-2.53-1.68,1,1,0,0,0-.94,1.77,13.83,13.83,0,0,1,2.21,1.47A1,1,0,0,0,43.22,10Z" style="fill:#8d6c9f;"/><path d="M36.39,5.36a16.2,16.2,0,0,0-11,1.57,1,1,0,0,0,1,1.76A14.21,14.21,0,0,1,36,7.31a1,1,0,0,0,.42-2Z" style="fill:#8d6c9f;"/><path d="M13,40a1,1,0,0,0-1,1v2a1,1,0,0,0,2,0V41A1,1,0,0,0,13,40Z" style="fill:#8d6c9f;"/><path d="M18,40a1,1,0,0,0-1,1v2a1,1,0,0,0,2,0V41A1,1,0,0,0,18,40Z" style="fill:#8d6c9f;"/><path d="M28,40a1,1,0,0,0-1,1v2a1,1,0,0,0,2,0V41A1,1,0,0,0,28,40Z" style="fill:#8d6c9f;"/><path d="M24,41a1,1,0,0,0-2,0v2a1,1,0,0,0,2,0Z" style="fill:#8d6c9f;"/><path d="M38,40a1,1,0,0,0-1,1v2a1,1,0,0,0,2,0V41A1,1,0,0,0,38,40Z" style="fill:#8d6c9f;"/><path d="M34,41a1,1,0,0,0-2,0v2a1,1,0,0,0,2,0Z" style="fill:#8d6c9f;"/><path d="M43,40a1,1,0,0,0-1,1v2a1,1,0,0,0,2,0V41A1,1,0,0,0,43,40Z" style="fill:#8d6c9f;"/><path d="M53,40a1,1,0,0,0-1,1v2a1,1,0,0,0,2,0V41A1,1,0,0,0,53,40Z" style="fill:#8d6c9f;"/><path d="M48,40a1,1,0,0,0-1,1v2a1,1,0,0,0,2,0V41A1,1,0,0,0,48,40Z" style="fill:#8d6c9f;"/><path d="M11.46,53.14a1,1,0,0,0-1.37.37L6.67,59.45a1,1,0,0,0,1.73,1l3.43-5.94A1,1,0,0,0,11.46,53.14Z" style="fill:#8d6c9f;"/><path d="M8,51.55a1,1,0,0,0,.87-.5l1-1.73a1,1,0,1,0-1.73-1L7.1,50A1,1,0,0,0,8,51.55Z" style="fill:#8d6c9f;"/><path d="M53.43,51.08a1,1,0,0,0-1.37.37l-3,5.2a1,1,0,0,0,1.73,1l3-5.2A1,1,0,0,0,53.43,51.08Z" style="fill:#8d6c9f;"/><path d="M48.82,59.08a1,1,0,0,0-1.37.37l-.5.87a1,1,0,0,0,1.73,1l.5-.87A1,1,0,0,0,48.82,59.08Z" style="fill:#8d6c9f;"/><path d="M41.17,56.51a1,1,0,0,0-1.37.37l-1.08,1.88a1,1,0,0,0,1.73,1l1.08-1.88A1,1,0,0,0,41.17,56.51Z" style="fill:#8d6c9f;"/></svg>
