<?xml version="1.0" encoding="iso-8859-1"?>
<!-- Generator: Adobe Illustrator 21.0.2, SVG Export Plug-In . SVG Version: 6.00 Build 0)  -->
<svg xmlns="http://www.w3.org/2000/svg" xmlns:xlink="http://www.w3.org/1999/xlink" version="1.1" id="Layer_1" x="0px" y="0px" viewBox="0 0 40 40" style="enable-background:new 0 0 40 40;" xml:space="preserve">
<g>
	<g>
		<path style="fill:#DFF0FE;" d="M8,27.5c-4.136,0-7.5-3.364-7.5-7.5c0-3.435,2.328-6.421,5.66-7.263l0.406-0.103l-0.029-0.417    C6.516,11.917,6.5,11.71,6.5,11.5c0-5.514,4.486-10,10-10c4.683,0,8.687,3.188,9.736,7.751l0.11,0.481l0.483-0.104    C27.221,9.543,27.614,9.5,28,9.5c2.724,0,5.006,1.953,5.426,4.645l0.058,0.37l0.371,0.049C37.073,14.987,39.5,17.754,39.5,21    c0,3.584-2.916,6.5-6.5,6.5H8z"/>
	</g>
	<g>
		<path style="fill:#4788C7;" d="M16.5,2c4.448,0,8.252,3.028,9.249,7.363l0.221,0.962l0.965-0.209C27.292,10.039,27.65,10,28,10    c2.475,0,4.549,1.776,4.932,4.222l0.116,0.739l0.742,0.098C36.76,15.45,39,18.004,39,21c0,3.308-2.692,6-6,6H8c-3.86,0-7-3.14-7-7    c0-3.205,2.172-5.992,5.283-6.778l0.812-0.205l-0.059-0.835L7.03,12.1C7.015,11.901,7,11.702,7,11.5C7,6.262,11.262,2,16.5,2     M16.5,1C10.701,1,6,5.701,6,11.5c0,0.254,0.02,0.503,0.038,0.752C2.57,13.128,0,16.26,0,20c0,4.418,3.582,8,8,8h25    c3.866,0,7-3.134,7-7c0-3.553-2.65-6.481-6.08-6.933C33.471,11.198,30.996,9,28,9c-0.438,0-0.865,0.05-1.276,0.139    C25.651,4.479,21.486,1,16.5,1L16.5,1z"/>
	</g>
</g>
<rect x="12" y="24" style="fill:#DFF0FE;" width="14" height="4"/>
<g>
	<path style="fill:#98CCFD;" d="M9.5,38.5c-1.103,0-2-0.897-2-2c0-1.484,1.949-3.506,3.197-4.599   c0.285,1.25,0.803,3.648,0.803,4.599C11.5,37.603,10.603,38.5,9.5,38.5z"/>
	<path style="fill:#4788C7;" d="M10.397,32.852C10.686,34.185,11,35.808,11,36.5c0,0.827-0.673,1.5-1.5,1.5S8,37.327,8,36.5   C8,35.522,9.177,34.031,10.397,32.852 M11,31c0,0-4,3.104-4,5.5C7,37.881,8.119,39,9.5,39s2.5-1.119,2.5-2.5S11,31,11,31L11,31z"/>
</g>
<g>
	<path style="fill:#98CCFD;" d="M25.5,38.5c-1.103,0-2-0.897-2-2c0-1.484,1.949-3.506,3.197-4.599   c0.285,1.25,0.803,3.648,0.803,4.599C27.5,37.603,26.603,38.5,25.5,38.5z"/>
	<path style="fill:#4788C7;" d="M26.397,32.852C26.686,34.185,27,35.808,27,36.5c0,0.827-0.673,1.5-1.5,1.5S24,37.327,24,36.5   C24,35.522,25.177,34.031,26.397,32.852 M27,31c0,0-4,3.104-4,5.5c0,1.381,1.119,2.5,2.5,2.5s2.5-1.119,2.5-2.5S27,31,27,31L27,31z   "/>
</g>
<line style="fill:none;stroke:#4788C7;stroke-linecap:round;stroke-miterlimit:10;" x1="22.5" y1="27.5" x2="15.5" y2="27.5"/>
<line style="fill:none;stroke:#4788C7;stroke-linecap:round;stroke-miterlimit:10;" x1="17.065" y1="24.583" x2="20.935" y2="30.417"/>
<line style="fill:none;stroke:#4788C7;stroke-linecap:round;stroke-miterlimit:10;" x1="20.935" y1="24.583" x2="17.065" y2="30.417"/>
<path style="fill:#4788C7;" d="M28.5,28h-3c-0.275,0-0.5-0.225-0.5-0.5l0,0c0-0.275,0.225-0.5,0.5-0.5h3c0.275,0,0.5,0.225,0.5,0.5  l0,0C29,27.775,28.775,28,28.5,28z"/>
<path style="fill:#4788C7;" d="M9.5,27h3c0.275,0,0.5,0.225,0.5,0.5l0,0c0,0.275-0.225,0.5-0.5,0.5h-3C9.225,28,9,27.775,9,27.5l0,0  C9,27.225,9.225,27,9.5,27z"/>
</svg>
