<?xml version="1.0"?>
<svg xmlns="http://www.w3.org/2000/svg" id="Layer_1" data-name="Layer 1" viewBox="0 0 64 64"><title>Icons8 RSL Colored Part 10</title><path d="M52.59,25a20,20,0,0,0-38.76-9.71A16,16,0,0,0,17,47H52a11,11,0,0,0,.59-22Z" style="fill:#c2cde7;"/><path d="M17.79,11.59a2.51,2.51,0,0,0,3.72-.21,15,15,0,0,1,23,0,2.51,2.51,0,0,0,3.72.21h0a2.52,2.52,0,0,0,.12-3.41,20,20,0,0,0-30.68,0,2.52,2.52,0,0,0,.12,3.41Z" style="fill:#d6dff2;"/><polygon points="6 42 61 42 55 47 13 47 6 42" style="fill:#acb7d0;"/><path d="M13,40a1,1,0,0,0-1,1v2a1,1,0,0,0,2,0V41A1,1,0,0,0,13,40Z" style="fill:#8d6c9f;"/><path d="M18,40a1,1,0,0,0-1,1v2a1,1,0,0,0,2,0V41A1,1,0,0,0,18,40Z" style="fill:#8d6c9f;"/><path d="M28,40a1,1,0,0,0-1,1v2a1,1,0,0,0,2,0V41A1,1,0,0,0,28,40Z" style="fill:#8d6c9f;"/><path d="M23,40a1,1,0,0,0-1,1v2a1,1,0,0,0,2,0V41A1,1,0,0,0,23,40Z" style="fill:#8d6c9f;"/><path d="M38,40a1,1,0,0,0-1,1v2a1,1,0,0,0,2,0V41A1,1,0,0,0,38,40Z" style="fill:#8d6c9f;"/><path d="M33,40a1,1,0,0,0-1,1v2a1,1,0,0,0,2,0V41A1,1,0,0,0,33,40Z" style="fill:#8d6c9f;"/><path d="M43,40a1,1,0,0,0-1,1v2a1,1,0,0,0,2,0V41A1,1,0,0,0,43,40Z" style="fill:#8d6c9f;"/><path d="M53,40a1,1,0,0,0-1,1v2a1,1,0,0,0,2,0V41A1,1,0,0,0,53,40Z" style="fill:#8d6c9f;"/><path d="M48,40a1,1,0,0,0-1,1v2a1,1,0,0,0,2,0V41A1,1,0,0,0,48,40Z" style="fill:#8d6c9f;"/><path d="M56.32,24.84a.94.94,0,0,0-.14-.09,11.88,11.88,0,0,0-2.1-.54l-.31-.06a21.39,21.39,0,0,0,0-6,21,21,0,0,0-40.13-5.35l0,0c-.19.44-.33.89-.49,1.34,0,.1-.08.2-.11.3A17.1,17.1,0,0,0,0,32,17.23,17.23,0,0,0,17.45,48h34.2A12.29,12.29,0,0,0,64,36.45,12.06,12.06,0,0,0,56.32,24.84ZM59,43V41a1,1,0,0,0-2,0v2a1,1,0,0,0,.84,1,10.49,10.49,0,0,1-6.19,2H17.45a15.75,15.75,0,0,1-8.59-2.53A1,1,0,0,0,9,43V41a1,1,0,0,0-2,0v1A14.71,14.71,0,0,1,2,31.84,15.1,15.1,0,0,1,12.44,16.72,21.06,21.06,0,0,0,12,21a1,1,0,0,0,2,0,19,19,0,0,1,.78-5.38v0c.11-.38.25-.74.38-1.11.06-.17.12-.35.19-.52A19,19,0,0,1,33,2a19.56,19.56,0,0,1,2.43.15A19.13,19.13,0,0,1,51.83,18.39,19.37,19.37,0,0,1,51.74,24a12,12,0,0,0-1.83.16,1,1,0,1,0,.35,2A10,10,0,0,1,52.59,26c.27,0,.53,0,.79.08l.32,0A10,10,0,0,1,62,36.38,9.77,9.77,0,0,1,59,43Z" style="fill:#8d6c9f;"/><path d="M43.21,10a1,1,0,0,0-.15-1.41,16,16,0,0,0-2.53-1.68,1,1,0,1,0-.94,1.76,14.08,14.08,0,0,1,2.22,1.47A1,1,0,0,0,43.21,10Z" style="fill:#8d6c9f;"/><path d="M36.38,5.36a16.2,16.2,0,0,0-11,1.57,1,1,0,0,0,1,1.76A14.19,14.19,0,0,1,36,7.31a1,1,0,0,0,.42-2Z" style="fill:#8d6c9f;"/><path d="M38.18,54a1,1,0,0,0-1.37-.37L34,55.27V52a1,1,0,0,0-2,0v3.27l-2.83-1.63a1,1,0,0,0-1,1.73L31,57l-2.83,1.63a1,1,0,0,0,1,1.73L32,58.73V62a1,1,0,0,0,2,0V58.73l2.83,1.63a1,1,0,0,0,1-1.73L35,57l2.83-1.63A1,1,0,0,0,38.18,54Z" style="fill:#8d6c9f;"/><path d="M53.32,52.5A1,1,0,0,0,52,52.13l-2,1.13V51a1,1,0,0,0-2,0v2.27l-2-1.13a1,1,0,0,0-1,1.73L47,55l-2,1.13a1,1,0,0,0,1,1.73l2-1.13V59a1,1,0,0,0,2,0V56.73l2,1.13a1,1,0,1,0,1-1.73L51,55l2-1.13A1,1,0,0,0,53.32,52.5Z" style="fill:#8d6c9f;"/><path d="M21.32,52.5A1,1,0,0,0,20,52.13l-2,1.13V51a1,1,0,0,0-2,0v2.27l-2-1.13a1,1,0,0,0-1,1.73L15,55l-2,1.13a1,1,0,0,0,1,1.73l2-1.13V59a1,1,0,0,0,2,0V56.73l2,1.13a1,1,0,0,0,1-1.73L19,55l2-1.13A1,1,0,0,0,21.32,52.5Z" style="fill:#8d6c9f;"/></svg>
